<svg width="24" height="21" viewBox="0 0 24 21" fill="none" xmlns="http://www.w3.org/2000/svg">
<path fill-rule="evenodd" clip-rule="evenodd" d="M2 0.5C3.10457 0.5 4 1.39543 4 2.5L4 18.5C4 19.6046 3.10457 20.5 2 20.5C0.895431 20.5 0 19.6046 0 18.5L0 2.5C0 1.39543 0.895431 0.5 2 0.5Z" fill="#263238"/>
<path fill-rule="evenodd" clip-rule="evenodd" d="M12 2.5C13.1046 2.5 14 3.39543 14 4.5V16.5C14 17.6046 13.1046 18.5 12 18.5C10.8954 18.5 10 17.6046 10 16.5V4.5C10 3.39543 10.8954 2.5 12 2.5Z" fill="#263238"/>
<path fill-rule="evenodd" clip-rule="evenodd" d="M22 4.5C23.1046 4.5 24 5.39543 24 6.5V14.5C24 15.6046 23.1046 16.5 22 16.5C20.8954 16.5 20 15.6046 20 14.5V6.5C20 5.39543 20.8954 4.5 22 4.5Z" fill="#263238"/>
</svg>
